<svg id="Capa_1" enable-background="new 0 0 512 512" height="512" viewBox="0 0 512 512" width="512" xmlns="http://www.w3.org/2000/svg"><g><g><path d="m279.592 89.028c41.343 0 82.302 17.158 118.471 49.616v-60.615c0-43.094-34.935-78.029-78.029-78.029h-80.884c-43.094 0-78.029 34.935-78.029 78.029v60.615c36.169-32.458 77.129-49.616 118.471-49.616z" fill="#fe646f"/></g><g><g><path d="m202.431 108.139v-30.11c0-43.094 34.934-78.029 78.028-78.029h-41.309c-43.094 0-78.029 34.935-78.029 78.029v59.281c13.235-11.792 27.063-21.544 41.31-29.171z" fill="#fd4755"/></g></g><path d="m267.745 346.111h23.694c3.392 0 6.15-2.759 6.15-6.151v-58.006h-35.995v58.006c.001 3.392 2.76 6.151 6.151 6.151z" fill="#fed402"/><g fill="#fd8087"><path d="m242.536 395.074-.012 6.954 1.012 1h241.464l2.893-1v-49.201c0-25.603-20.755-46.358-46.358-46.358h-85.194v-48.646c-13.725 14.826-33.334 24.131-55.084 24.131h-4.667v58.006c0 2.845-2.306 5.151-5.151 5.151h-23.694c-2.845 0-5.151-2.306-5.151-5.151v-58.006h-4.667c-21.749 0-41.359-9.304-55.084-24.13v48.646h-85.193c-25.603 0-46.358 20.755-46.358 46.358v16.492l1.207 1h145.282c13.65 0 24.755 11.105 24.755 24.754z"/><path d="m242.536 395.074-.012 6.954 1.012 1h241.464l2.893-1v-49.201c0-25.603-20.755-46.358-46.358-46.358h-85.194v-48.646c-13.725 14.826-33.334 24.131-55.084 24.131h-4.667v58.006c0 2.845-2.306 5.151-5.151 5.151h-23.694c-2.845 0-5.151-2.306-5.151-5.151v-58.006h-4.667c-21.749 0-41.359-9.304-55.084-24.13v48.646h-85.193c-25.603 0-46.358 20.755-46.358 46.358v16.492l1.207 1h145.282c13.65 0 24.755 11.105 24.755 24.754z"/><path d="m243.536 435.024-1.073 1 .073 74.976 1 1h234.055c5.689 0 10.302-4.612 10.302-10.302v-65.674l-2.893-1z"/></g><path d="m202.844 259.323v47.146h-85.194c-25.603 0-46.358 20.755-46.358 46.358v16.492h13.158l4.961-22.463c2.341-10.6 11.557-18.003 22.412-18.003h43.273c4.383 0 8.495 1.231 12.006 3.379h57.681c5.69 0 10.302-4.612 10.302-10.302v-42.47c-12.43-3.908-23.471-10.93-32.241-20.137z" fill="#fe646f"/><g><path d="m348.716 419.026c0-6.077 1.357-11.834 3.772-16.998h-109.952v33.996h109.952c-2.415-5.163-3.772-10.921-3.772-16.998z" fill="#fed402"/><path d="m272.092 345.111h15v166.889h-15z" fill="#fe646f"/><path d="m425.299 402.028c2.415 5.163 3.772 10.921 3.772 16.998s-1.357 11.834-3.772 16.998h62.594v-33.996z" fill="#fed402"/></g><g><path d="m182.842 206.869v-54.869h-1.18c-1.714 1.448-3.42 2.927-5.114 4.452-2.13 1.918-4.89 2.974-7.771 2.974-3.157 0-6.126-1.23-8.36-3.464-.548-.548-1.031-1.142-1.453-1.769-11.408 4.546-19.475 15.684-19.475 28.713v11.501c0 17.069 13.837 30.906 30.906 30.906h14.748c-1.499-5.904-2.301-12.082-2.301-18.444z" fill="#f6a96c"/><path d="m400.222 154.192c-.423.627-.905 1.221-1.453 1.769-2.234 2.234-5.203 3.464-8.36 3.464-2.882 0-5.642-1.056-7.771-2.974-1.693-1.525-3.4-3.003-5.114-4.452h-1.181v54.869c0 6.363-.802 12.54-2.299 18.444h14.749c17.069 0 30.905-13.837 30.905-30.906v-11.501c-.001-13.029-8.068-24.167-19.476-28.713z" fill="#ffbd86"/></g><g><g><path d="m279.592 112.821c-33.649 0-67.377 13.938-97.75 40.348v53.699c0 42.021 34.064 76.085 76.085 76.085h43.33c42.021 0 76.085-34.064 76.085-76.085v-53.698c-30.373-26.411-64.1-40.349-97.75-40.349z" fill="#fed2a4"/></g></g><g><path d="m213.997 206.869v-76.332c-11.018 6.052-21.782 13.614-32.155 22.633v53.699c0 42.02 34.064 76.085 76.085 76.085h32.155c-42.021 0-76.085-34.065-76.085-76.085z" fill="#ffbd86"/></g><g><g><path d="m236.536 184.558c-4.143 0-7.5-3.358-7.5-7.5v-22.11c0-4.142 3.357-7.5 7.5-7.5s7.5 3.358 7.5 7.5v22.11c0 4.142-3.357 7.5-7.5 7.5z" fill="#bb5d4c"/></g><g><path d="m322.648 184.558c-4.143 0-7.5-3.358-7.5-7.5v-22.11c0-4.142 3.357-7.5 7.5-7.5s7.5 3.358 7.5 7.5v22.11c0 4.142-3.357 7.5-7.5 7.5z" fill="#bb5d4c"/></g></g><g><path d="m279.592 206.668h-10.302c-2.332 0-4.531-1.085-5.951-2.935-1.419-1.851-1.896-4.256-1.293-6.508l10.302-38.402c1.072-4.001 5.186-6.374 9.188-5.3 4.001 1.073 6.374 5.186 5.301 9.187l-7.769 28.958h.524c4.143 0 7.5 3.358 7.5 7.5s-3.358 7.5-7.5 7.5z" fill="#bb5d4c"/></g><g><path d="m279.593 249.591c-15.606 0-30.285-6.084-41.333-17.133-2.929-2.929-2.929-7.678 0-10.606 2.931-2.93 7.679-2.929 10.607 0 8.215 8.215 19.126 12.739 30.726 12.739 11.599 0 22.51-4.524 30.725-12.739 2.93-2.929 7.678-2.929 10.607 0s2.929 7.678 0 10.606c-11.048 11.048-25.727 17.133-41.332 17.133z" fill="#bb5d4c"/></g><g><g><g><path d="m399.476 156.669c-4.778 4.778-12.487 5.048-17.508.526-31.734-28.577-66.921-43.609-102.375-43.609s-70.641 15.032-102.375 43.609c-5.022 4.522-12.73 4.252-17.508-.526-5.187-5.187-4.939-13.659.514-18.566 36.471-32.813 77.502-50.075 119.369-50.075s82.898 17.262 119.369 50.075c5.453 4.906 5.701 13.378.514 18.566z" fill="#554e56"/></g></g><g><g><path d="m191.231 138.103c31.956-28.751 67.412-45.561 103.865-49.283-5.15-.526-10.321-.792-15.504-.792-41.867 0-82.898 17.262-119.369 50.075-5.454 4.907-5.702 13.379-.515 18.566 4.778 4.778 12.487 5.048 17.508.526 3.242-2.919 6.521-5.689 9.831-8.324-.372-3.899 1.029-7.93 4.184-10.768z" fill="#433f43"/></g></g><g><path d="m310.498 61.811h-61.811c-2.845 0-5.151-2.306-5.151-5.151v-15.453c0-2.845 2.306-5.151 5.151-5.151h61.811c2.845 0 5.151 2.306 5.151 5.151v15.453c0 2.845-2.307 5.151-5.151 5.151z" fill="#fff"/></g><g><path d="m274.543 56.66v-15.453c0-2.845 2.306-5.151 5.151-5.151h-31.007c-2.845 0-5.151 2.306-5.151 5.151v15.453c0 2.845 2.306 5.151 5.151 5.151h31.007c-2.845 0-5.151-2.306-5.151-5.151z" fill="#f3f0f3"/></g></g><g><g><circle cx="388.893" cy="419.026" fill="#fff" r="40.177"/></g><g><path d="m379.622 419.026c0-16.713 10.206-31.038 24.724-37.093-4.758-1.984-9.976-3.084-15.453-3.084-22.189 0-40.177 17.988-40.177 40.177s17.988 40.177 40.177 40.177c5.477 0 10.695-1.1 15.453-3.084-14.518-6.055-24.724-20.38-24.724-37.093z" fill="#f3f0f3"/></g><g><path d="m388.894 466.703c-26.29 0-47.678-21.388-47.678-47.677 0-26.29 21.388-47.677 47.678-47.677 26.289 0 47.677 21.388 47.677 47.677-.001 26.289-21.388 47.677-47.677 47.677zm0-80.354c-18.019 0-32.678 14.659-32.678 32.677s14.659 32.677 32.678 32.677c18.018 0 32.677-14.659 32.677-32.677s-14.66-32.677-32.677-32.677z" fill="#fe646f"/></g></g><g><path d="m99.59 370.32 4.468-20.228c.812-3.673 4.005-6.238 7.766-6.238h43.273c3.729 0 6.916 2.538 7.751 6.173l4.661 20.293h15.39l-5.433-23.65c-2.408-10.489-11.606-17.815-22.37-17.815h-43.273c-10.855 0-20.071 7.403-22.412 18.003l-5.182 23.463h15.361z" fill="#554e56"/><path d="m217.781 369.32h-28.845l-1 1v56.69c0 13.649-11.105 24.754-24.755 24.754h-58.72c-13.649 0-24.755-11.105-24.755-24.754v-56.69l-1-1h-28.844c-14.224 0-25.754 11.531-25.754 25.755v111.775c0 2.845 2.306 5.151 5.151 5.151h214.278v-116.927c-.001-14.223-11.532-25.754-25.756-25.754z" fill="#fe646f"/><path d="m78.707 369.417v-.097h-28.845c-14.224 0-25.755 11.531-25.755 25.755v111.775c0 2.845 2.306 5.151 5.151 5.151h31.007c-2.845 0-5.151-2.306-5.151-5.151v-111.776c.001-13.494 10.382-24.558 23.593-25.657z" fill="#fd4755"/><g><path d="m104.461 452.765h58.72c14.224 0 25.755-11.531 25.755-25.755v-57.69h-110.229v57.69c0 14.224 11.531 25.755 25.754 25.755z" fill="#fff"/></g><g><path d="m106.624 427.01v-57.69h-27.917v57.69c0 14.224 11.531 25.755 25.755 25.755h27.917c-14.225 0-25.755-11.531-25.755-25.755z" fill="#f3f0f3"/></g><path d="m148.859 402.612h-7.538v-7.538c0-4.142-3.357-7.5-7.5-7.5s-7.5 3.358-7.5 7.5v7.538h-7.537c-4.143 0-7.5 3.358-7.5 7.5s3.357 7.5 7.5 7.5h7.537v7.538c0 4.142 3.357 7.5 7.5 7.5s7.5-3.358 7.5-7.5v-7.538h7.538c4.143 0 7.5-3.358 7.5-7.5s-3.357-7.5-7.5-7.5z" fill="#0593fc"/><path d="m24.107 476.17h219.428v15h-219.428z" fill="#554e56"/><path d="m24.107 476.17h31.007v15h-31.007z" fill="#433f43"/></g></g></svg>