<svg height="512" viewBox="0 0 128 128" width="512" xmlns="http://www.w3.org/2000/svg"><g><path d="m33.658 46.182v-2.909a12.364 12.364 0 0 0 -12.364-12.364v27.636a12.364 12.364 0 0 0 12.364-12.363z" fill="#bfc4c4"/><path d="m21.294 61.682v-33.909a3.5 3.5 0 0 0 -7 0v33.909a3.5 3.5 0 0 0 7 0z" fill="#ebebeb"/><path d="m43.658 41.227h-6.5v7h5.5a3 3 0 0 1 3 3v50.318a9 9 0 0 0 9 9h26.182a9 9 0 0 0 9-9v-6.636h-7v5.636a3 3 0 0 1 -3 3h-24.182a3 3 0 0 1 -3-3v-50.318a9 9 0 0 0 -9-9z" fill="#89c4db"/><path d="m40.658 49.546v-9.637a3.5 3.5 0 0 0 -7 0v9.637a3.5 3.5 0 1 0 7 0z" fill="#f1d288"/><path d="m41.521 57.818h15v12.818h-15z" fill="#75b3c6"/><path d="m104.911 94.909a3 3 0 0 0 3-3v-35.618h-38.618v35.618a3 3 0 0 0 3 3z" fill="#dedfdf"/><path d="m105.706 17.454h-34.206a8 8 0 0 0 -8 8v33.091h50.207v-33.091a8 8 0 0 0 -8.001-8z" fill="#75b3c6"/><g><circle cx="88.602" cy="82.431" fill="#bfc4c4" r="4.565" transform="matrix(.707 -.707 .707 .707 -32.337 86.795)"/><path d="m82.807 64.204h11.591v7h-11.591z" fill="#86cbe0"/></g><g fill="#d5de56"><rect height="16.182" rx="3" width="24.727" x="76.239" y="24.335"/><g><g><path d="m82.9 48.642a1.75 1.75 0 0 0 0-3.5h-2.048a1.75 1.75 0 0 0 0 3.5z"/><path d="m89.625 48.642a1.75 1.75 0 0 0 0-3.5h-2.046a1.75 1.75 0 0 0 0 3.5z"/><path d="m96.352 48.642a1.75 1.75 0 0 0 0-3.5h-2.045a1.75 1.75 0 0 0 0 3.5z"/></g><g><path d="m82.9 53.415a1.75 1.75 0 0 0 0-3.5h-2.048a1.75 1.75 0 0 0 0 3.5z"/><path d="m89.625 53.415a1.75 1.75 0 0 0 0-3.5h-2.046a1.75 1.75 0 0 0 0 3.5z"/><path d="m96.352 53.415a1.75 1.75 0 0 0 0-3.5h-2.045a1.75 1.75 0 0 0 0 3.5z"/></g></g></g></g><g><path d="m17.794 22.522a5.256 5.256 0 0 0 -5.25 5.25v33.91a5.25 5.25 0 0 0 10.5 0v-1.507a14.124 14.124 0 0 0 10.43-6.9 5.224 5.224 0 0 0 8.89-3.3h.3a1.25 1.25 0 0 1 1.25 1.25v4.838h-2.393a1.751 1.751 0 0 0 -1.75 1.75v12.823a1.751 1.751 0 0 0 1.75 1.75h2.389v12.534a1.75 1.75 0 0 0 3.5 0v-12.534h3.5v28.164a4.756 4.756 0 0 0 4.75 4.75h24.18a4.756 4.756 0 0 0 4.75-4.75v-3.89h3.5v4.89a7.258 7.258 0 0 1 -7.25 7.25h-26.18a7.258 7.258 0 0 1 -7.25-7.25v-5.28a1.75 1.75 0 0 0 -3.5 0v5.28a10.762 10.762 0 0 0 10.75 10.75h26.18a10.762 10.762 0 0 0 10.75-10.75v-4.89h13.32a4.756 4.756 0 0 0 4.75-4.75v-31.61h4.05a1.75 1.75 0 0 0 1.75-1.75v-33.1a9.747 9.747 0 0 0 -7.442-9.48 1.751 1.751 0 1 0 -.836 3.4 6.252 6.252 0 0 1 4.778 6.08v31.35h-46.71v-31.35a6.268 6.268 0 0 1 4.537-6.007 1.75 1.75 0 0 0 -.955-3.367 9.781 9.781 0 0 0 -7.082 9.374v33.1a1.75 1.75 0 0 0 1.75 1.75h4.04v31.61a4.756 4.756 0 0 0 4.75 4.75h8.8v3.89a1.252 1.252 0 0 1 -1.25 1.25h-24.18a1.252 1.252 0 0 1 -1.25-1.25v-28.164h2.111a1.75 1.75 0 0 0 1.75-1.75v-12.818a1.75 1.75 0 0 0 -1.75-1.75h-2.111v-5.838a10.762 10.762 0 0 0 -10.75-10.75h-1.295a5.225 5.225 0 0 0 -8.891-3.3 14.123 14.123 0 0 0 -10.43-6.9v-1.508a5.256 5.256 0 0 0 -5.25-5.25zm1.75 39.16a1.75 1.75 0 0 1 -3.5 0v-33.91a1.75 1.75 0 0 1 3.5 0zm52.746 31.478a1.251 1.251 0 0 1 -1.25-1.25v-31.61h35.12v31.61a1.25 1.25 0 0 1 -1.25 1.25zm-19.649-33.592h2.13v9.318h-11.5v-9.318zm-10.233-16.588h1.252a7.258 7.258 0 0 1 7.25 7.25v5.838h-3.5v-4.838a4.756 4.756 0 0 0 -4.75-4.75h-.252zm-7-3.071a1.75 1.75 0 0 1 3.5 0v9.637a1.75 1.75 0 1 1 -3.5 0zm-3.5 3.363v2.91a10.63 10.63 0 0 1 -8.864 10.469v-23.851a10.631 10.631 0 0 1 8.864 10.472z"/><path d="m96.25 19.2a1.75 1.75 0 0 0 0-3.5h-15.61a1.75 1.75 0 0 0 0 3.5z"/><path d="m94.916 82.432a6.315 6.315 0 1 0 -6.316 6.314 6.322 6.322 0 0 0 6.316-6.314zm-9.129 0a2.815 2.815 0 1 1 2.813 2.814 2.818 2.818 0 0 1 -2.813-2.814z"/><path d="m94.4 72.955a1.75 1.75 0 0 0 1.75-1.75v-7a1.749 1.749 0 0 0 -1.75-1.75h-11.593a1.749 1.749 0 0 0 -1.75 1.75v7a1.75 1.75 0 0 0 1.75 1.75zm-9.84-7h8.09v3.5h-8.09z"/><path d="m97.966 42.267a4.756 4.756 0 0 0 4.75-4.75v-10.182a4.756 4.756 0 0 0 -4.75-4.75h-18.728a4.756 4.756 0 0 0 -4.75 4.75v10.182a4.756 4.756 0 0 0 4.75 4.75zm-19.978-4.75v-10.182a1.252 1.252 0 0 1 1.25-1.25h18.728a1.252 1.252 0 0 1 1.25 1.25v10.182a1.252 1.252 0 0 1 -1.25 1.25h-18.728a1.252 1.252 0 0 1 -1.25-1.25z"/><path d="m82.934 48.642a1.75 1.75 0 0 0 0-3.5h-2.118a1.75 1.75 0 0 0 0 3.5z"/><path d="m89.661 48.642a1.75 1.75 0 0 0 0-3.5h-2.117a1.75 1.75 0 0 0 0 3.5z"/><path d="m96.389 48.642a1.75 1.75 0 0 0 0-3.5h-2.118a1.75 1.75 0 0 0 0 3.5z"/><path d="m89.661 53.415a1.75 1.75 0 0 0 0-3.5h-2.117a1.75 1.75 0 0 0 0 3.5z"/><path d="m96.389 53.415a1.75 1.75 0 0 0 0-3.5h-2.118a1.75 1.75 0 0 0 0 3.5z"/><path d="m82.934 53.415a1.75 1.75 0 0 0 0-3.5h-2.118a1.75 1.75 0 0 0 0 3.5z"/></g></svg>