<svg height="500pt" viewBox="0 -7 500 499" width="500pt" xmlns="http://www.w3.org/2000/svg"><path d="m295.789062 457.019531c-4.027343-4.074219-7.492187-8.667969-10.300781-13.660156v-.007813c-5.4375-9.664062-8.296875-20.5625-8.296875-31.652343v-22.460938c0-18.03125 5.195313-35.683593 14.96875-50.839843l2.148438-2.839844 41.242187-54.347656 97.121094.328124.019531-.019531 43.589844 56.679688c9.996094 15.277343 15.320312 33.136719 15.320312 51.390625v22.109375c0 11.089843-2.859374 21.988281-8.300781 31.652343v.007813c-11.429687 20.28125-32.902343 32.828125-56.179687 32.832031h-85.441406c-17.242188 0-33.769532-6.902344-45.890626-19.171875zm0 0" fill="#fedb41"/><path d="m451.398438 193.429688-18.949219 87.78125.242187.308593-.019531.019531-97.121094-.328124-18.160156-87.78125 55.410156 26.601562c7.332031 3.507812 15.859375 3.507812 23.1875 0zm0 0" fill="#f4b844"/><path d="m295.789062 457.019531h-287.390624v-50h268.792968v4.679688c0 11.089843 2.859375 21.988281 8.296875 31.652343v.007813c2.808594 4.992187 6.273438 9.585937 10.300781 13.660156zm0 0" fill="#00acea"/><path d="m238.058594 335.320312h50.453125c2.148437 0 3.699219.050782 5.796875.238282l-2.148438 2.839844c-9.773437 15.15625-14.96875 32.808593-14.96875 50.839843v17.78125h-268.792968v-1.800781c0-38.601562 31.296874-69.898438 69.902343-69.898438h50.167969l15.03125 9.820313c23.449219 15.320313 53.652344 15.652344 77.429688.847656zm0 0" fill="#00efd1"/><path d="m289.480469 111.5h4.519531v35h-230v-35zm0 0" fill="#00efd1"/><path d="m289.480469 111.5h-212.160157v-.179688c0-.890624.007813-1.769531.039063-2.648437 1.359375-55.761719 47.820313-99.863281 103.589844-99.863281h5c51.890625 0 96.410156 38.28125 102.730469 89.78125.523437 4.285156.792968 8.59375.800781 12.910156zm0 0" fill="#00acea"/><path d="m285.738281 146.5v65.660156c0 .789063-.007812 1.570313-.027343 2.351563l-.710938-.011719h-71.601562l-30-16-30 16h-72.296876c-.023437-.78125-.03125-1.558594-.03125-2.339844v-65.660156zm-37.167969 34.058594c0-7.730469-8.628906-14-19.28125-14-10.648437 0-19.269531 6.269531-19.269531 14 0 7.730468 8.628907 14 19.269531 14 10.640626 0 19.28125-6.269532 19.28125-14zm-91.78125 0c0-7.730469-8.628906-14-19.277343-14-10.652344 0-19.273438 6.269531-19.273438 14 0 7.730468 8.632813 14 19.273438 14 10.636719 0 19.277343-6.269532 19.277343-14zm0 0" fill="#4b5d63"/><path d="m285 214.5.710938.011719c-.878907 34.675781-18.746094 66.710937-47.789063 85.679687-33.234375 21.832032-76.285156 21.738282-109.421875-.242187-28.832031-19.011719-46.535156-50.925781-47.398438-85.449219h72.296876l30-16 30 16zm0 0" fill="#f7caa5"/><path d="m229.289062 166.558594c10.652344 0 19.28125 6.269531 19.28125 14 0 7.730468-8.628906 14-19.28125 14-10.648437 0-19.269531-6.269532-19.269531-14 0-7.730469 8.628907-14 19.269531-14zm0 0" fill="#fedb41"/><path d="m238.058594 334.421875v.898437l-17.128906 10.667969c-23.777344 14.804688-53.980469 14.472657-77.429688-.847656l-15.03125-9.820313v-35.332031l.03125-.039062c33.136719 21.980469 76.1875 22.074219 109.421875.242187l.136719.207032zm0 0" fill="#edb288"/><path d="m137.511719 166.558594c10.648437 0 19.277343 6.269531 19.277343 14 0 7.730468-8.628906 14-19.277343 14-10.652344 0-19.273438-6.269532-19.273438-14 0-7.730469 8.632813-14 19.273438-14zm0 0" fill="#fedb41"/><g fill="#083863"><path d="m482.621094 333.324219-41.566406-54.054688 18.164062-84.152343c.644531-2.984376-.464844-6.078126-2.863281-7.96875-2.398438-1.890626-5.664063-2.253907-8.417969-.929688l-55.398438 26.597656c-5.144531 2.476563-11.132812 2.476563-16.273437 0l-55.410156-26.597656c-2.742188-1.320312-5.996094-.96875-8.394531.90625-2.394532 1.875-3.523438 4.945312-2.90625 7.925781l17.425781 84.21875-36.476563 48.160157c-.652344-.015626-1.308594.070312-2 .070312h-42.503906v-23.1875c5.640625-3.804688 10.828125-8.234375 15.460938-13.210938 20.078124-20.441406 31.644531-47.742187 32.359374-76.386718.023438-.847656.179688-1.695313.179688-2.554688v-57.660156c4.417969 0 8-3.582031 8-8v-35c0-3.167969-1.871094-6.035156-4.769531-7.316406-.140625-2.203125-.34375-4.554688-.609375-6.722656-6.773438-55.1875-54.351563-96.960938-110.671875-96.960938h-5c-29 0-56.871094 11.257812-77.734375 31.398438-19.746094 18.839843-31.734375 44.378906-33.613282 71.601562h-5.601562c-4.417969 0-8 3.582031-8 8v35c0 4.417969 3.582031 8 8 8h9v57.660156c0 .414063.046875.820313.050781 1.230469-.046875.367187-.070312.738281-.066406 1.109375-.074219.515625-.097656 1.035156-.074219 1.554688 1.394532 35.019531 18.742188 67.46875 47.089844 88.078124v23.367188h-41.699219c-42.953125 0-78.300781 34.765625-78.300781 77.71875v51.800781c.148438 4.589844 3.8125 8.289063 8.398438 8.480469h284.171874c13.480469 12.148438 30.960938 18.910156 49.109376 19h85.441406c26.183594-.085938 50.304687-14.238281 63.148437-37.058594.050781-.085937.300781-.253906.34375-.347656 6.082031-10.808594 9.308594-22.992188 9.386719-35.394531v-22.109375c-.054688-19.832032-5.902344-39.214844-16.824219-55.769532-.113281-.171874-.429687-.335937-.554687-.496093zm-113.277344-106.078125c9.515625 4.582031 20.597656 4.582031 30.109375 0l40.679687-19.527344-14.199218 65.796875-83.859375-.285156-13.570313-65.597657zm-233.34375 86.40625c29.664062 14.417968 64.296875 14.464844 94 .125v17.101562l-13.328125 8.320313c-21.230469 13.101562-48.109375 12.808593-69.046875-.753907l-11.625-7.453124zm-21.710938-270.203125c17.890626-17.28125 41.789063-26.941407 66.660157-26.949219h5c48.25 0 89 35.730469 94.789062 82.910156.160157 1.300782.285157 2.773438.394531 4.089844h-195.476562c1.859375-22.851562 12.050781-44.222656 28.632812-60.050781zm-42.289062 76.050781h214v19h-214zm206 35v52h-62.601562l-28.234376-15.058594c-2.351562-1.253906-5.175781-1.253906-7.527343 0l-28.238281 15.058594h-62.398438v-52zm-188.363281 68h63.761719c1.316406 0 2.609374-.324219 3.765624-.941406l26.234376-13.992188 26.238281 13.992188c1.15625.617187 2.449219.941406 3.761719.941406h63.765624c-3.191406 28.992188-19.191406 55.035156-43.613281 70.988281-30.566406 20.097657-70.179687 20.007813-100.65625-.222656-24.269531-15.9375-40.140625-41.898437-43.257812-70.765625zm-11.335938 121h47.789063l13.035156 8.425781c26.066406 16.96875 59.585938 17.355469 86.035156.988281l15.1875-9.414062h39.789063c-7.285157 14.148438-11.101563 29.828125-11.136719 45.738281v10.261719h-252.289062c2.921874-31.804688 29.652343-56.109375 61.589843-56zm-62.300781 72h253.277344c.542968 11.144531 3.660156 22.011719 9.097656 31.757812.046875.089844.097656.296876.148438.386719.417968.570313.757812 1.195313 1.011718 1.855469h-263.535156zm468-3.800781c-.074219 9.730469-2.648438 19.277343-7.46875 27.726562-.046875.078125-.1875.308594-.230469.390625-10.082031 17.667969-28.835937 28.605469-49.179687 28.683594h-85.441406c-20.339844-.070312-39.082032-11.046875-49.089844-28.757812-.039063-.082032-.179688-.199219-.226563-.277344-4.789062-8.472656-7.324219-18.03125-7.363281-27.765625v-22.460938c.023438-16.402343 4.753906-32.457031 13.628906-46.253906l40.835938-53.761719 89.265625.300782 41.207031 53.300781c9.117188 13.898437 14.003906 30.144531 14.0625 46.765625zm0 0"/><path d="m384.398438 336.039062c9.4375.011719 17.082031 7.65625 17.089843 17.089844 0 4.417969 3.582031 8 8 8 4.421875 0 8-3.582031 8-8-.015625-15.722656-11.082031-29.273437-26.488281-32.429687v-6.199219c0-4.417969-3.582031-8-8-8s-8 3.582031-8 8v6.90625c-15.769531 4.664062-25.71875 20.203125-23.359375 36.476562 2.359375 16.273438 16.316406 28.34375 32.757813 28.335938 9.4375.007812 17.085937 7.660156 17.082031 17.097656-.003907 9.4375-7.65625 17.085938-17.09375 17.082032-9.4375 0-17.085938-7.652344-17.085938-17.089844 0-4.417969-3.582031-8-8-8s-8 3.582031-8 8c.019531 14.652344 9.65625 27.550781 23.699219 31.722656v7.46875c0 4.417969 3.582031 8 8 8s8-3.582031 8-8v-6.761719c16.648438-3.390625 28.023438-18.839843 26.320312-35.742187-1.703124-16.90625-15.929687-29.773438-32.921874-29.777344-9.4375 0-17.089844-7.648438-17.089844-17.089844 0-9.4375 7.652344-17.089844 17.089844-17.089844zm0 0"/><path d="m137.511719 202.558594c15.296875 0 27.277343-9.664063 27.277343-22 0-12.335938-11.980468-22-27.277343-22s-27.273438 9.664062-27.273438 22c0 12.339844 11.980469 22 27.273438 22zm0-28c6.882812 0 11.277343 3.554687 11.277343 6 0 2.449218-4.394531 6-11.277343 6-6.886719 0-11.273438-3.550782-11.273438-6 0-2.445313 4.390625-6 11.273438-6zm0 0"/><path d="m229.289062 202.558594c15.300782 0 27.28125-9.664063 27.28125-22 0-12.335938-11.984374-22-27.28125-22-15.296874 0-27.269531 9.664062-27.269531 22 0 12.339844 11.980469 22 27.269531 22zm0-28c6.886719 0 11.28125 3.554687 11.28125 6 0 2.449218-4.394531 6-11.28125 6-6.886718 0-11.269531-3.550782-11.269531-6 0-2.445313 4.390625-6 11.269531-6zm0 0"/></g></svg>