<svg id="Layer_1" enable-background="new 0 0 512 512" height="512" viewBox="0 0 512 512" width="512" xmlns="http://www.w3.org/2000/svg"><g><path d="m425.138 160.66-10.001-17.321c-6.082-10.532-19.522-14.133-30.059-8.047l-17.07 9.86c-3.818 2.205-5.14 7.098-2.924 10.933l24.021 41.54c1.482 2.563 4.169 3.996 6.933 3.996 2.823 0 2.412-.161 21.037-10.909 10.505-6.053 14.124-19.531 8.063-30.052z" fill="#9da0df"/><path d="m335.891 54.685-5.772-34.631c-1.936-11.62-11.892-20.054-23.673-20.054h-132.892c-11.781 0-21.737 8.434-23.673 20.054l-5.772 34.631c-.812 4.874 2.951 9.315 7.891 9.315h176c4.941 0 8.703-4.442 7.891-9.315z" fill="#595965"/><path d="m335.89 54.68-5.77-34.63c-1.94-11.62-11.89-20.05-23.67-20.05h-48c11.78 0 21.73 8.43 23.67 20.05l5.77 34.63c.818 4.866-2.95 9.32-7.89 9.32h48c4.935 0 8.709-4.449 7.89-9.32z" fill="#44454e"/><path d="m366.631 135.748-12.67-69.678c-1.902-10.47-11.003-18.07-21.641-18.07h-184.64c-10.638 0-19.739 7.6-21.641 18.068l-12.67 69.68c-.892 4.905 2.879 9.432 7.871 9.432h237.52c4.985 0 8.764-4.52 7.871-9.432z" fill="#9da0df"/><path d="m328 448h-176c-4.941 0-8.703 4.442-7.891 9.315l5.772 34.631c1.937 11.62 11.893 20.054 23.673 20.054h132.892c11.781 0 21.737-8.434 23.673-20.054l5.772-34.631c.812-4.874-2.951-9.315-7.891-9.315z" fill="#595965"/><path d="m335.89 457.32-5.77 34.63c-1.94 11.62-11.89 20.05-23.67 20.05h-48c11.78 0 21.73-8.43 23.67-20.05l5.77-34.63c.818-4.866-2.95-9.32-7.89-9.32h48c4.935 0 8.709 4.449 7.89 9.32z" fill="#44454e"/><path d="m358.76 366.82h-237.52c-4.985 0-8.764 4.52-7.871 9.432l12.67 69.678c1.902 10.47 11.003 18.07 21.641 18.07h184.64c10.638 0 19.739-7.6 21.641-18.068l12.67-69.68c.892-4.905-2.879-9.432-7.871-9.432z" fill="#9da0df"/><path d="m366.63 376.25-12.67 69.68c-1.9 10.47-11 18.07-21.64 18.07h-47c10.64 0 19.74-7.6 21.64-18.07l12.67-69.68c.9-4.876-2.862-9.43-7.87-9.43h47c5.021 0 8.767 4.567 7.87 9.43z" fill="#8286c6"/><path d="m366.63 135.75-12.67-69.68c-1.9-10.47-11-18.07-21.64-18.07h-47c10.64 0 19.74 7.6 21.64 18.07l12.67 69.68c.9 4.876-2.862 9.43-7.87 9.43h47c5.021 0 8.767-4.567 7.87-9.43z" fill="#8286c6"/><path d="m426 216h-21.05c-4.418 0-8 3.582-8 8v64c0 4.418 3.582 8 8 8h21.05c12.131 0 22-9.869 22-22v-36c0-12.131-9.869-22-22-22z" fill="#9da0df"/><path d="m448 238v36c0 12.13-9.87 22-22 22h-16c12.13 0 22-9.87 22-22v-36c0-12.13-9.87-22-22-22h16c12.13 0 22 9.87 22 22z" fill="#8286c6"/><path d="m417.079 321.291-17.05-9.84c-3.823-2.209-8.713-.898-10.924 2.924l-24.021 41.54c-2.215 3.832-.895 8.727 2.924 10.933l17.07 9.86c10.534 6.084 23.974 2.488 30.06-8.048l10.004-17.327c6.057-10.514 2.438-23.992-8.063-30.042z" fill="#9da0df"/><path d="m425.14 351.33-10 17.33c-6.044 10.464-19.476 14.169-30.06 8.05-18.534-10.706-17.305-9.966-17.85-10.38 6.103 3.526 9.905 6.34 16.82 6.34 7.589 0 14.996-3.922 19.09-11.01l10-17.33c5.77-10.01 2.76-22.73-6.62-29.14l10.56 6.1c10.5 6.05 14.12 19.53 8.06 30.04z" fill="#8286c6"/><path d="m425.14 160.67-10-17.33c-6.044-10.464-19.476-14.169-30.06-8.05-18.534 10.706-17.305 9.966-17.85 10.38 6.103-3.526 9.905-6.34 16.82-6.34 7.589 0 14.996 3.922 19.09 11.01l10 17.33c5.77 10.01 2.76 22.73-6.62 29.14l10.56-6.1c10.5-6.05 14.12-19.53 8.06-30.04z" fill="#8286c6"/><circle cx="240" cy="256" fill="#696ead" r="176"/><path d="m416 256c0 106.468-94.159 188.795-200 174.37 85.74-11.74 152-85.46 152-174.37s-66.26-162.63-152-174.37c105.621-14.395 200 67.695 200 174.37z" fill="#505795"/><path d="m376 256c0 78.566-66.569 140.439-144 135.76-71.209-4.14-128-63.392-128-135.76 0-72.463 56.883-131.625 128-135.76 77.588-4.689 144 57.355 144 135.76z" fill="#edebfd"/><path d="m376 256c0 84.122-76.228 148.81-160 133.88 63.58-11.36 112-67.07 112-133.88s-48.42-122.52-112-133.88c83.813-14.937 160 49.795 160 133.88z" fill="#d2d2fc"/><g fill="#595965"><path d="m248 120.24v31.76c0 4.42-3.58 8-8 8s-8-3.58-8-8v-31.76c5.165-.312 10.561-.328 16 0z"/><path d="m144 256c0 4.42-3.58 8-8 8h-31.76c-.31-5.143-.33-10.539 0-16h31.76c4.42 0 8 3.58 8 8z"/><path d="m248 360v31.76c-5.165.312-10.561.329-16 0v-31.76c0-4.42 3.58-8 8-8s8 3.58 8 8z"/><path d="m375.76 264h-31.76c-4.42 0-8-3.58-8-8s3.58-8 8-8h31.76c.31 5.143.33 10.539 0 16z"/></g><path d="m234.343 261.657-40-40c-3.125-3.125-3.125-8.189 0-11.314 3.124-3.123 8.189-3.123 11.313 0l34.344 34.344 58.343-58.344c3.124-3.123 8.189-3.123 11.313 0 3.125 3.125 3.125 8.189 0 11.314l-64 64c-3.124 3.124-8.189 3.123-11.313 0z" fill="#e48c9b"/></g></svg>