<svg height="512" viewBox="0 0 64 64" width="512" xmlns="http://www.w3.org/2000/svg"><g id="Blue"><path d="m40 3h-16l-7 7v41l7 6h16l7-6v-41zm-3 46h-10v-38h10z" fill="#cdeef6"/><g fill="#7cb8eb"><path d="m24 57 4 4h16l-4-4z"/><path d="m40 57 7-6 4 4-7 6z"/><path d="m47 10v41l4 4v-41z"/><path d="m27 11 4 4h6v-4z"/><path d="m27 11 4 4v34h-4z"/></g><path d="m37 10h-10a1 1 0 0 0 -1 1v38a1 1 0 0 0 1 1h10a1 1 0 0 0 1-1v-38a1 1 0 0 0 -1-1zm-7 38h-2v-34.586l2 2zm6 0h-4v-32h4zm0-34h-4.586l-2-2h6.586z" fill="#4f83d1"/><path d="m40.707 2.293a1 1 0 0 0 -.707-.293h-16a1 1 0 0 0 -.707.293l-7 7a1 1 0 0 0 -.293.707v41a1 1 0 0 0 .35.759l6.969 5.974 3.974 3.974a1 1 0 0 0 .707.293h16a.994.994 0 0 0 .65-.241l7-6a1 1 0 0 0 .349-.72v-41.039a1 1 0 0 0 -.293-.707zm-22.707 48.247v-40.126l6.414-6.414h15.172l6.414 6.414v40.126l-6.37 5.46h-15.26zm10.414 9.46-2-2h13.172l2 2zm15.639-.362-2.582-2.581 5.476-4.695 2.582 2.581zm5.947-7.052-2-2v-38.172l2 2z" fill="#4f83d1"/></g></svg>